<mxfile host="app.diagrams.net" modified="2023-10-29T18:10:26.679Z" agent="Mozilla/5.0 (Windows NT 10.0; Win64; x64) AppleWebKit/537.36 (KHTML, like Gecko) Chrome/118.0.0.0 Safari/537.36" etag="nLHbk5Cl47fvTdTchvp9" version="22.0.8" type="device">
  <diagram name="Page-1" id="2YBvvXClWsGukQMizWep">
    <mxGraphModel dx="697" dy="312" grid="1" gridSize="10" guides="1" tooltips="1" connect="1" arrows="1" fold="1" page="1" pageScale="1" pageWidth="850" pageHeight="1100" math="0" shadow="0">
      <root>
        <mxCell id="0" />
        <mxCell id="1" parent="0" />
        <mxCell id="jPb_xlBhS2OYKgZuGVyc-1" value=":ApiCtrl" style="shape=umlLifeline;perimeter=lifelinePerimeter;whiteSpace=wrap;html=1;container=0;dropTarget=0;collapsible=0;recursiveResize=0;outlineConnect=0;portConstraint=eastwest;newEdgeStyle={&quot;edgeStyle&quot;:&quot;elbowEdgeStyle&quot;,&quot;elbow&quot;:&quot;vertical&quot;,&quot;curved&quot;:0,&quot;rounded&quot;:0};" vertex="1" parent="1">
          <mxGeometry x="300" y="220" width="100" height="610" as="geometry" />
        </mxCell>
        <mxCell id="jPb_xlBhS2OYKgZuGVyc-2" value="" style="html=1;points=[];perimeter=orthogonalPerimeter;outlineConnect=0;targetShapes=umlLifeline;portConstraint=eastwest;newEdgeStyle={&quot;edgeStyle&quot;:&quot;elbowEdgeStyle&quot;,&quot;elbow&quot;:&quot;vertical&quot;,&quot;curved&quot;:0,&quot;rounded&quot;:0};" vertex="1" parent="jPb_xlBhS2OYKgZuGVyc-1">
          <mxGeometry x="45" y="70" width="10" height="420" as="geometry" />
        </mxCell>
        <mxCell id="jPb_xlBhS2OYKgZuGVyc-3" value="GetDoctors (UUID)" style="html=1;verticalAlign=bottom;startArrow=oval;endArrow=block;startSize=8;edgeStyle=elbowEdgeStyle;elbow=vertical;curved=0;rounded=0;" edge="1" parent="jPb_xlBhS2OYKgZuGVyc-1" target="jPb_xlBhS2OYKgZuGVyc-2">
          <mxGeometry relative="1" as="geometry">
            <mxPoint x="-210" y="70" as="sourcePoint" />
          </mxGeometry>
        </mxCell>
        <mxCell id="jPb_xlBhS2OYKgZuGVyc-4" value=":DB Ctrl" style="shape=umlLifeline;perimeter=lifelinePerimeter;whiteSpace=wrap;html=1;container=0;dropTarget=0;collapsible=0;recursiveResize=0;outlineConnect=0;portConstraint=eastwest;newEdgeStyle={&quot;edgeStyle&quot;:&quot;elbowEdgeStyle&quot;,&quot;elbow&quot;:&quot;vertical&quot;,&quot;curved&quot;:0,&quot;rounded&quot;:0};" vertex="1" parent="1">
          <mxGeometry x="500" y="220" width="100" height="600" as="geometry" />
        </mxCell>
        <mxCell id="jPb_xlBhS2OYKgZuGVyc-5" value="" style="html=1;points=[];perimeter=orthogonalPerimeter;outlineConnect=0;targetShapes=umlLifeline;portConstraint=eastwest;newEdgeStyle={&quot;edgeStyle&quot;:&quot;elbowEdgeStyle&quot;,&quot;elbow&quot;:&quot;vertical&quot;,&quot;curved&quot;:0,&quot;rounded&quot;:0};" vertex="1" parent="jPb_xlBhS2OYKgZuGVyc-4">
          <mxGeometry x="45" y="80" width="10" height="430" as="geometry" />
        </mxCell>
        <mxCell id="jPb_xlBhS2OYKgZuGVyc-6" value="GetDoctors()" style="html=1;verticalAlign=bottom;endArrow=block;edgeStyle=elbowEdgeStyle;elbow=vertical;curved=0;rounded=0;" edge="1" parent="1" source="jPb_xlBhS2OYKgZuGVyc-2" target="jPb_xlBhS2OYKgZuGVyc-5">
          <mxGeometry relative="1" as="geometry">
            <mxPoint x="455" y="310" as="sourcePoint" />
            <Array as="points">
              <mxPoint x="440" y="300" />
            </Array>
          </mxGeometry>
        </mxCell>
        <mxCell id="jPb_xlBhS2OYKgZuGVyc-7" value="return Doctors" style="html=1;verticalAlign=bottom;endArrow=block;edgeStyle=elbowEdgeStyle;elbow=vertical;curved=0;rounded=0;" edge="1" parent="1" source="jPb_xlBhS2OYKgZuGVyc-5">
          <mxGeometry relative="1" as="geometry">
            <mxPoint x="435" y="340" as="sourcePoint" />
            <Array as="points">
              <mxPoint x="450" y="340" />
            </Array>
            <mxPoint x="360" y="340" as="targetPoint" />
          </mxGeometry>
        </mxCell>
        <mxCell id="jPb_xlBhS2OYKgZuGVyc-8" value="" style="shape=umlLifeline;perimeter=lifelinePerimeter;whiteSpace=wrap;html=1;container=1;dropTarget=0;collapsible=0;recursiveResize=0;outlineConnect=0;portConstraint=eastwest;newEdgeStyle={&quot;curved&quot;:0,&quot;rounded&quot;:0};participant=umlActor;" vertex="1" parent="1">
          <mxGeometry x="60" y="215" width="20" height="610" as="geometry" />
        </mxCell>
        <mxCell id="jPb_xlBhS2OYKgZuGVyc-9" value="Patient" style="text;html=1;align=center;verticalAlign=middle;resizable=0;points=[];autosize=1;strokeColor=none;fillColor=none;" vertex="1" parent="1">
          <mxGeometry x="40" y="190" width="60" height="30" as="geometry" />
        </mxCell>
        <mxCell id="jPb_xlBhS2OYKgZuGVyc-10" value=":Patient" style="shape=umlLifeline;perimeter=lifelinePerimeter;whiteSpace=wrap;html=1;container=0;dropTarget=0;collapsible=0;recursiveResize=0;outlineConnect=0;portConstraint=eastwest;newEdgeStyle={&quot;edgeStyle&quot;:&quot;elbowEdgeStyle&quot;,&quot;elbow&quot;:&quot;vertical&quot;,&quot;curved&quot;:0,&quot;rounded&quot;:0};" vertex="1" parent="1">
          <mxGeometry x="740" y="220" width="100" height="590" as="geometry" />
        </mxCell>
        <mxCell id="jPb_xlBhS2OYKgZuGVyc-11" value="" style="html=1;points=[];perimeter=orthogonalPerimeter;outlineConnect=0;targetShapes=umlLifeline;portConstraint=eastwest;newEdgeStyle={&quot;edgeStyle&quot;:&quot;elbowEdgeStyle&quot;,&quot;elbow&quot;:&quot;vertical&quot;,&quot;curved&quot;:0,&quot;rounded&quot;:0};" vertex="1" parent="jPb_xlBhS2OYKgZuGVyc-10">
          <mxGeometry x="45" y="80" width="10" height="440" as="geometry" />
        </mxCell>
        <mxCell id="jPb_xlBhS2OYKgZuGVyc-12" value="return appointments" style="html=1;verticalAlign=bottom;endArrow=open;dashed=1;endSize=8;edgeStyle=elbowEdgeStyle;elbow=vertical;curved=0;rounded=0;" edge="1" parent="1" target="jPb_xlBhS2OYKgZuGVyc-8">
          <mxGeometry x="-0.0002" relative="1" as="geometry">
            <mxPoint x="109.99499999999999" y="690" as="targetPoint" />
            <Array as="points">
              <mxPoint x="305.12" y="690" />
            </Array>
            <mxPoint x="350.12" y="690" as="sourcePoint" />
            <mxPoint as="offset" />
          </mxGeometry>
        </mxCell>
        <mxCell id="jPb_xlBhS2OYKgZuGVyc-13" value="return Doctors" style="html=1;verticalAlign=bottom;endArrow=block;edgeStyle=elbowEdgeStyle;elbow=vertical;curved=0;rounded=0;" edge="1" parent="1" target="jPb_xlBhS2OYKgZuGVyc-8">
          <mxGeometry relative="1" as="geometry">
            <mxPoint x="345" y="350" as="sourcePoint" />
            <Array as="points">
              <mxPoint x="270" y="350" />
            </Array>
            <mxPoint x="180" y="350" as="targetPoint" />
          </mxGeometry>
        </mxCell>
        <mxCell id="jPb_xlBhS2OYKgZuGVyc-14" value="GetPatient (UUID )" style="html=1;verticalAlign=bottom;startArrow=oval;endArrow=block;startSize=8;edgeStyle=elbowEdgeStyle;elbow=vertical;curved=0;rounded=0;" edge="1" parent="1">
          <mxGeometry relative="1" as="geometry">
            <mxPoint x="80" y="380" as="sourcePoint" />
            <mxPoint x="350" y="380" as="targetPoint" />
          </mxGeometry>
        </mxCell>
        <mxCell id="jPb_xlBhS2OYKgZuGVyc-15" value="GetPatient(UUID)" style="html=1;verticalAlign=bottom;endArrow=block;edgeStyle=elbowEdgeStyle;elbow=vertical;curved=0;rounded=0;" edge="1" parent="1" target="jPb_xlBhS2OYKgZuGVyc-20">
          <mxGeometry relative="1" as="geometry">
            <mxPoint x="360" y="390" as="sourcePoint" />
            <Array as="points">
              <mxPoint x="445" y="390" />
            </Array>
            <mxPoint x="530" y="390" as="targetPoint" />
          </mxGeometry>
        </mxCell>
        <mxCell id="jPb_xlBhS2OYKgZuGVyc-16" value="updateAppointment( AppointmentID , doctor , slot)" style="html=1;verticalAlign=bottom;endArrow=block;edgeStyle=elbowEdgeStyle;elbow=vertical;curved=0;rounded=0;" edge="1" parent="1">
          <mxGeometry x="-0.2719" relative="1" as="geometry">
            <mxPoint x="350" y="560" as="sourcePoint" />
            <Array as="points">
              <mxPoint x="445" y="560" />
            </Array>
            <mxPoint x="789.5" y="560" as="targetPoint" />
            <mxPoint as="offset" />
          </mxGeometry>
        </mxCell>
        <mxCell id="jPb_xlBhS2OYKgZuGVyc-17" value="UpdatePatientAppointments(Patient)" style="html=1;verticalAlign=bottom;endArrow=block;edgeStyle=elbowEdgeStyle;elbow=vertical;curved=0;rounded=0;" edge="1" parent="1">
          <mxGeometry relative="1" as="geometry">
            <mxPoint x="360" y="600" as="sourcePoint" />
            <Array as="points">
              <mxPoint x="445" y="600" />
            </Array>
            <mxPoint x="549.4999999999998" y="600" as="targetPoint" />
          </mxGeometry>
        </mxCell>
        <mxCell id="jPb_xlBhS2OYKgZuGVyc-18" value="return Patient" style="html=1;verticalAlign=bottom;endArrow=block;edgeStyle=elbowEdgeStyle;elbow=vertical;curved=0;rounded=0;" edge="1" parent="1" source="jPb_xlBhS2OYKgZuGVyc-20">
          <mxGeometry relative="1" as="geometry">
            <mxPoint x="525" y="410" as="sourcePoint" />
            <Array as="points">
              <mxPoint x="450" y="410" />
            </Array>
            <mxPoint x="360" y="410" as="targetPoint" />
          </mxGeometry>
        </mxCell>
        <mxCell id="jPb_xlBhS2OYKgZuGVyc-19" value="return&amp;nbsp;" style="html=1;verticalAlign=bottom;endArrow=open;dashed=1;endSize=8;edgeStyle=elbowEdgeStyle;elbow=vertical;curved=0;rounded=0;" edge="1" parent="1">
          <mxGeometry relative="1" as="geometry">
            <mxPoint x="360" y="620" as="targetPoint" />
            <Array as="points">
              <mxPoint x="535" y="620" />
            </Array>
            <mxPoint x="510" y="620" as="sourcePoint" />
            <mxPoint as="offset" />
          </mxGeometry>
        </mxCell>
        <mxCell id="jPb_xlBhS2OYKgZuGVyc-20" value=":Active DB" style="shape=umlLifeline;perimeter=lifelinePerimeter;whiteSpace=wrap;html=1;container=0;dropTarget=0;collapsible=0;recursiveResize=0;outlineConnect=0;portConstraint=eastwest;newEdgeStyle={&quot;edgeStyle&quot;:&quot;elbowEdgeStyle&quot;,&quot;elbow&quot;:&quot;vertical&quot;,&quot;curved&quot;:0,&quot;rounded&quot;:0};" vertex="1" parent="1">
          <mxGeometry x="610" y="220" width="100" height="520" as="geometry" />
        </mxCell>
        <mxCell id="jPb_xlBhS2OYKgZuGVyc-21" value="" style="html=1;points=[];perimeter=orthogonalPerimeter;outlineConnect=0;targetShapes=umlLifeline;portConstraint=eastwest;newEdgeStyle={&quot;edgeStyle&quot;:&quot;elbowEdgeStyle&quot;,&quot;elbow&quot;:&quot;vertical&quot;,&quot;curved&quot;:0,&quot;rounded&quot;:0};" vertex="1" parent="jPb_xlBhS2OYKgZuGVyc-20">
          <mxGeometry x="45" y="80" width="10" height="440" as="geometry" />
        </mxCell>
        <mxCell id="jPb_xlBhS2OYKgZuGVyc-22" value="GetPatient(UUID)" style="html=1;verticalAlign=bottom;endArrow=block;edgeStyle=elbowEdgeStyle;elbow=vertical;curved=0;rounded=0;" edge="1" parent="1">
          <mxGeometry x="-0.1319" relative="1" as="geometry">
            <mxPoint x="360" y="490" as="sourcePoint" />
            <Array as="points">
              <mxPoint x="445" y="490" />
            </Array>
            <mxPoint x="659.4999999999998" y="490" as="targetPoint" />
            <mxPoint as="offset" />
          </mxGeometry>
        </mxCell>
        <mxCell id="jPb_xlBhS2OYKgZuGVyc-23" value="return PatientID" style="html=1;verticalAlign=bottom;endArrow=block;edgeStyle=elbowEdgeStyle;elbow=vertical;curved=0;rounded=0;" edge="1" parent="1">
          <mxGeometry relative="1" as="geometry">
            <mxPoint x="659.4999999999998" y="524.62" as="sourcePoint" />
            <Array as="points">
              <mxPoint x="440" y="524.62" />
            </Array>
            <mxPoint x="350" y="524.62" as="targetPoint" />
          </mxGeometry>
        </mxCell>
        <mxCell id="jPb_xlBhS2OYKgZuGVyc-25" value="return Patient" style="html=1;verticalAlign=bottom;endArrow=block;edgeStyle=elbowEdgeStyle;elbow=vertical;curved=0;rounded=0;" edge="1" parent="1" target="jPb_xlBhS2OYKgZuGVyc-8">
          <mxGeometry relative="1" as="geometry">
            <mxPoint x="345" y="420" as="sourcePoint" />
            <Array as="points">
              <mxPoint x="270" y="420" />
            </Array>
            <mxPoint x="110" y="420" as="targetPoint" />
          </mxGeometry>
        </mxCell>
        <mxCell id="jPb_xlBhS2OYKgZuGVyc-26" value="updateAppointment(UUID , AppointmentID , doctor , slot)" style="html=1;verticalAlign=bottom;startArrow=oval;endArrow=block;startSize=8;edgeStyle=elbowEdgeStyle;elbow=vertical;curved=0;rounded=0;" edge="1" parent="1" source="jPb_xlBhS2OYKgZuGVyc-8">
          <mxGeometry relative="1" as="geometry">
            <mxPoint x="120" y="460" as="sourcePoint" />
            <mxPoint x="340" y="460" as="targetPoint" />
          </mxGeometry>
        </mxCell>
      </root>
    </mxGraphModel>
  </diagram>
</mxfile>
